<svg xmlns="http://www.w3.org/2000/svg" width="15px" height="23px" viewBox="0 0 15 23"><path fill="#222539" fill-rule="evenodd" d="M6.35373 4.89117C6.18624 4.89117 6.05047 4.77552 6.05047 4.63286V0.26664C6.05047 0.119379 6.19062 0 6.36351 0C6.44566 -3.6381e-05 6.52432 0.0283189 6.58148 0.0785783C6.63865 0.128838 6.66942 0.1967 6.66677 0.26664V4.63286C6.66681 4.70284 6.63352 4.76983 6.57452 4.81852C6.51551 4.86721 6.43584 4.89343 6.35373 4.89117ZM14.5019 8.79643C14.4614 8.80704 14.4186 8.80704 14.3782 8.79643L2.08879 4.31023C2.03643 4.29014 1.99479 4.25202 1.97285 4.20409C1.94853 4.14793 1.9515 4.08495 1.98101 4.03092C2.01052 3.97689 2.06377 3.93693 2.12743 3.92105C2.16784 3.91043 2.21069 3.91043 2.2511 3.92105L14.5405 8.41432C14.5936 8.43312 14.636 8.47094 14.6579 8.51903C14.6798 8.56713 14.6792 8.62132 14.6564 8.66906C14.6348 8.73452 14.5752 8.78358 14.5019 8.79643ZM4.67102 22.49C4.62527 22.5036 4.57739 22.5036 4.53164 22.49L0.148978 20.1664C0.0866151 20.1323 0.0389482 20.0692 0.0173434 19.9919C-0.00578113 19.9178 -0.00578113 19.8363 0.0173434 19.7623C0.0534658 19.6642 0.129448 19.5948 0.218667 19.5786C0.263951 19.561 0.312762 19.561 0.358045 19.5786L4.74071 21.893C4.86714 21.9707 4.92389 22.1489 4.87235 22.3063C4.83312 22.3998 4.75805 22.4649 4.67102 22.4808V22.49ZM14.2583 9.76663L1.99833 4.93647C1.80777 4.86183 1.59263 4.8811 1.41878 4.98839C1.24494 5.09569 1.13312 5.27821 1.11756 5.48006C1.45168 7.68526 1.52031 9.92175 1.32203 12.1429C1.13723 14.3982 0.69402 16.6257 0.000878195 18.7824C-0.00543306 18.8366 0.0226953 18.8891 0.071654 18.9144C1.32989 19.5667 5.8045 21.4848 5.88314 21.5159C5.94028 21.5327 6.0021 21.5144 6.04042 21.4693C6.1163 21.3197 6.19312 21.1707 6.27087 21.0222C7.59386 21.1258 8.90765 21.2925 10.2049 21.5213C10.3177 21.5281 10.4234 21.4775 10.4669 21.3958C10.7438 20.9868 11.2268 20.3886 11.4918 20.0605C11.5907 19.938 11.6593 19.8531 11.6754 19.8297C11.7274 19.799 11.7505 19.7467 11.7338 19.6974C11.7171 19.6482 11.664 19.6117 11.5993 19.6051C11.5545 19.5993 11.5088 19.5993 11.4641 19.6051H8.51471C8.38372 19.6051 8.10273 19.5952 7.82173 19.5853C7.54074 19.5753 7.25975 19.5654 7.12876 19.5654H7.07265C8.01528 17.9343 9.0735 16.3699 10.2398 14.8841C11.5059 13.3566 12.9408 11.9736 14.5178 10.7606C14.6549 10.6062 14.7059 10.3948 14.654 10.1959C14.6021 9.99702 14.4539 9.83633 14.2583 9.76663ZM3.35093 6.79968C3.3267 8.5014 3.17424 10.199 2.89482 11.8783C2.54681 13.5558 2.1031 15.2125 1.56581 16.8405C1.56581 16.8963 1.52004 16.9415 1.46358 16.9415C1.40711 16.9415 1.36134 16.8963 1.36134 16.8405C1.76629 15.1197 2.02928 13.3693 2.14774 11.6065C2.29079 9.7952 2.25127 7.9743 2.02978 6.17068C2.0337 6.12603 2.05906 6.08595 2.09798 6.06289C2.13689 6.03983 2.18464 6.0366 2.22638 6.05419L3.15433 6.4347C3.30181 6.4921 3.38517 6.64684 3.35093 6.79968ZM7.84939 4.76415C7.87857 4.81883 7.93247 4.8606 7.99832 4.87957C8.06388 4.89926 8.13588 4.89454 8.1973 4.86654C8.25871 4.83854 8.30407 4.78973 8.32263 4.73168L9.76581 1.28097C9.8157 1.16627 9.75085 1.03797 9.61987 0.992237C9.48555 0.949651 9.33688 1.00949 9.28745 1.12604L7.84428 4.59084C7.81837 4.64675 7.82022 4.70947 7.84939 4.76415ZM9.85089 5.79509C9.75985 5.68972 9.75985 5.52014 9.85089 5.41477L12.3174 2.0342C12.4095 1.93001 12.5577 1.93001 12.6497 2.0342C12.693 2.08338 12.7174 2.15031 12.7174 2.22013C12.7174 2.28994 12.693 2.35687 12.6497 2.40606L10.1832 5.78664C10.0932 5.8932 9.94497 5.89697 9.85089 5.79509Z"></path></svg>